# xmcd CD database file
#
# Track frame offsets:
#	150
#	16451
#	29602
#	41821
#	52911
#	66462
#	78639
#	93477
#	108078
#	120276
#
# Disc length: 1738 seconds
#
# Revision: 0
# Processed by: cddbd v1.5.2PL0 Copyright (c) Steve Scherf et al.
# Submitted via: CDex 1.51
#
DISCID=7f06c80a
DTITLE=Heli Deinboek - Achtung Diebe!
DYEAR=1984
DGENRE=Blues
TTITLE0=Der Mann, den Mütter lieben
TTITLE1=Achtung, Diebe!
TTITLE2=Der Fehler (in der Evolution)
TTITLE3=Kleiner Mann
TTITLE4=Schöner Apache
TTITLE5=Aufgewacht (in der Stille der Nacht)
TTITLE6=Die Melodie
TTITLE7=Oh, wie schön!
TTITLE8=Süße Pensionistin
TTITLE9=Die Wunder
EXTD=YEAR: 1984
EXTT0=
EXTT1=
EXTT2=
EXTT3=
EXTT4=
EXTT5=
EXTT6=
EXTT7=
EXTT8=
EXTT9=
PLAYORDER=
